<svg width="413" height="494" viewBox="0 0 413 494" fill="none" xmlns="http://www.w3.org/2000/svg">
<g clip-path="url(#clip0)">
<path d="M290.494 27.7327C344.962 49.6794 384.865 104.347 388.855 163.004C390.052 180.761 388.057 199.316 379.079 214.679C370.101 230.041 352.942 241.414 335.186 239.618C321.419 238.421 309.448 229.842 298.275 221.462C254.581 189.141 210.688 156.819 166.994 124.298C155.422 115.719 143.85 107.14 135.67 95.3684C128.887 85.7917 121.704 67.6358 127.889 56.0639C133.276 46.0881 150.235 38.5065 159.812 33.7182C185.35 20.9492 214.479 14.9637 243.009 16.7594C259.17 18.156 275.331 21.7472 290.494 27.7327Z" fill="url(#paint0_linear)"/>
<path d="M135.472 448.512H130.484V433.548C128.29 388.857 108.937 370.302 97.5642 363.119C83.9972 354.54 80.4059 353.742 69.8316 351.547C66.8388 350.949 63.2476 350.151 58.6587 348.954C56.6636 348.555 54.6684 347.956 52.4737 347.557C43.8946 345.562 35.1159 343.567 26.9358 339.577C14.9648 333.791 6.78472 324.812 4.39054 314.637C1.59732 303.863 5.98666 292.89 9.97696 283.313C10.5755 281.917 11.1741 280.52 11.5731 279.123C12.7702 275.732 12.3711 271.941 10.5755 268.948C9.97696 268.15 9.37842 267.352 8.77987 266.554C7.7823 265.357 6.78472 264.16 5.98666 262.763C3.9915 258.972 3.79199 254.384 5.78714 250.593C6.78472 248.598 8.38084 247.001 10.376 245.605C8.97939 244.607 7.98181 243.211 7.18375 241.814C4.78957 237.225 5.1886 232.836 8.18133 230.242C12.9697 226.252 17.1595 222.461 18.3566 217.473C18.7556 215.877 18.7556 214.48 18.3566 212.685C13.5682 209.493 8.58036 205.901 4.78957 200.913C0.200714 194.928 -1.19589 187.346 0.998775 181.56C3.19344 175.774 8.58036 171.984 12.7702 168.991C16.3615 166.597 19.9527 164.203 23.3445 162.008C33.1207 155.823 42.2985 149.837 49.2815 141.059C54.8679 134.076 57.8606 125.696 61.0529 116.917C62.25 113.326 63.6466 109.535 65.2427 106.144C72.8243 88.3868 84.9947 73.2236 96.7661 58.4595C109.934 41.8997 134.674 26.537 141.857 22.1477C178.966 -0.198036 209.293 -0.996099 242.013 0.400508C279.722 1.99663 316.034 13.9676 344.165 34.3181C363.917 48.6832 380.676 68.0362 392.647 90.1824C404.618 112.329 411.601 137.069 412.599 161.409C413.597 185.75 409.008 210.889 399.032 234.232C389.056 257.376 374.092 278.126 355.737 294.087C339.975 307.854 330.399 317.231 316.433 333.192C292.092 360.925 286.505 403.621 303.065 436.741L298.676 438.935C281.318 404.02 287.104 359.129 312.841 330C326.807 314.039 336.584 304.462 352.545 290.496C370.501 274.934 385.066 254.783 394.643 232.437C404.219 209.892 408.808 185.551 407.811 161.808C406.813 138.066 400.029 114.324 388.458 92.7761C376.886 71.2285 360.525 52.474 341.372 38.7075C314.038 18.9554 278.525 7.18403 241.814 5.58791C203.108 3.99178 177.37 6.785 144.45 26.7365C137.467 30.9264 113.326 46.0895 100.756 62.0507C89.1846 76.2163 77.2136 90.9805 69.8316 108.338C68.435 111.73 67.0384 115.521 65.8413 118.913C62.649 127.691 59.4568 136.869 53.2718 144.451C45.8897 153.828 35.7144 160.212 26.1377 166.397C22.7459 168.592 19.1547 170.986 15.7629 173.181C11.1741 176.373 7.38327 179.366 5.78714 183.356C3.79199 188.543 5.98666 194.329 8.77987 197.921C12.1716 202.51 17.1595 205.702 21.9479 208.894C22.3469 209.293 22.7459 209.692 22.9455 210.291C23.7435 213.283 23.943 215.678 23.145 218.471C21.3493 225.454 15.5634 230.242 11.1741 233.833C9.97696 234.831 10.376 237.225 11.3736 239.22C12.3711 241.216 14.5658 242.612 16.7605 243.011C17.9576 243.211 18.9552 244.208 18.9552 245.405C18.9552 246.602 17.9576 247.8 16.7605 247.999C14.1668 248.398 10.9745 250.593 9.77745 252.787C8.58036 255.182 8.58036 257.975 9.97696 260.369C10.5755 261.367 11.3736 262.364 12.1716 263.362C12.9697 264.16 13.5682 265.157 14.3663 266.155C17.1595 270.544 17.7581 276.131 15.9624 280.919C15.3639 282.316 14.7653 283.712 14.3663 285.109C10.5755 294.486 6.5852 304.262 8.97939 313.241C11.1741 322.019 18.3566 329.8 28.9309 334.988C36.5125 338.579 45.2912 340.574 53.4713 342.569C55.4665 342.968 57.6611 343.567 59.6563 343.966C64.0456 344.963 67.6369 345.762 70.6296 346.56C81.603 348.954 85.5933 349.752 99.9584 358.93C113.126 367.11 122.703 380.278 128.689 398.035C132.28 408.609 134.475 420.779 135.073 433.349C135.073 433.349 135.073 433.349 135.073 433.548V448.512H135.472Z" fill="white"/>
<path d="M121.505 184.352C115.719 184.352 110.132 183.155 104.746 180.761C94.3707 176.172 85.592 166.994 80.8037 155.822C80.2051 154.624 80.8037 153.028 82.0007 152.43C83.1978 151.831 84.794 152.43 85.3925 153.627C89.7818 163.802 97.7625 171.783 106.94 175.973C116.118 179.963 126.692 180.162 135.87 176.172C137.067 175.574 138.663 176.172 139.062 177.569C139.661 178.766 139.062 180.362 137.666 180.761C132.478 183.155 127.091 184.352 121.505 184.352Z" fill="white"/>
<path d="M367.308 157.218C365.512 154.624 363.318 152.23 360.724 150.036C367.507 144.649 370.899 135.67 369.702 126.692C368.505 117.914 362.719 109.534 354.539 104.746C348.354 101.154 340.972 99.5582 333.59 99.9572C336.782 94.5703 337.979 87.9863 336.982 81.6018C335.784 74.2197 331.794 66.8377 325.609 60.8522C320.222 55.6648 313.239 51.6745 305.059 48.8813C296.081 45.8886 287.103 44.891 279.122 46.0881C270.343 47.4847 262.163 51.6745 256.976 57.8595C256.178 57.66 255.38 57.4605 254.582 57.2609C254.781 53.0711 253.385 48.4823 250.392 44.6915C247.599 40.9007 243.608 37.7084 238.621 35.1147C231.039 31.3239 222.859 29.5283 215.277 30.3264C206.898 31.1244 199.316 35.1147 194.328 40.9007C189.739 46.4871 187.744 53.8692 188.941 60.6527C182.357 56.8619 174.377 55.6648 166.995 57.66C158.615 59.8546 151.632 66.2391 149.038 74.2197C146.444 82.2004 148.24 91.7771 153.826 98.3611C154.226 98.7601 154.625 99.3587 155.024 99.7577C148.041 105.145 144.05 114.123 145.048 122.901C146.045 132.279 152.829 140.858 161.807 144.649C162.206 144.848 162.406 144.848 162.805 145.048C166.595 146.444 171.384 147.043 175.374 145.247C173.978 151.432 175.574 158.415 179.763 164.002C182.956 168.191 187.545 171.384 192.931 173.379C195.326 174.177 197.72 174.775 200.314 175.175C205.7 175.773 210.688 174.975 214.878 172.78C216.674 171.783 218.27 170.785 219.667 169.389C219.866 174.975 221.462 180.162 224.654 184.751C227.847 189.34 232.436 192.931 237.623 194.727C239.618 195.525 241.813 195.924 244.007 196.124C244.007 196.323 244.207 196.323 244.406 196.523C255.579 205.501 262.762 219.267 263.959 233.034V233.632C264.158 235.827 264.358 238.421 265.755 240.616C266.752 242.212 268.348 243.209 270.144 244.007C271.94 244.606 274.134 244.805 276.129 244.207C278.723 243.409 280.918 241.414 282.913 238.221C283.312 237.623 283.711 236.825 284.11 236.027C284.709 235.029 285.307 233.832 286.105 233.034C289.098 235.827 292.889 238.221 297.278 239.817C297.677 240.017 298.076 240.017 298.475 240.217C304.062 242.012 309.648 242.411 314.436 241.414C320.422 240.217 325.809 236.426 329.001 231.438C332.193 226.649 333.39 220.464 332.393 214.679H332.592C338.578 213.282 343.167 208.294 344.364 202.309C349.152 203.306 354.539 202.309 359.128 199.715C363.318 197.321 366.709 193.729 369.104 189.141C374.49 179.364 373.692 166.795 367.308 157.218ZM279.322 236.226C277.726 238.62 276.129 240.017 274.533 240.616C272.538 241.214 269.944 240.416 268.947 238.82C268.149 237.423 267.949 235.628 267.75 233.632V233.034C266.553 219.267 259.969 205.7 249.394 196.124C253.584 195.525 257.574 193.729 260.567 191.136C260.567 193.131 260.966 195.126 261.565 196.922C263.36 202.508 267.55 207.695 273.137 210.888C274.733 211.686 276.129 212.484 277.726 213.082C278.125 213.282 278.723 213.481 279.122 213.481C277.925 218.868 279.322 225.053 283.112 230.041C282.115 231.438 281.317 232.834 280.519 234.032C280.12 234.83 279.721 235.628 279.322 236.226ZM365.512 187.544C363.318 191.535 360.325 194.527 356.933 196.523C353.142 198.717 348.753 199.316 344.763 198.518H344.563C344.364 194.128 342.368 189.739 338.977 186.347C342.368 182.756 343.765 177.569 342.768 172.78C342.568 171.783 341.57 171.184 340.373 171.184C339.376 171.384 338.578 172.381 338.977 173.379C339.974 178.167 337.78 183.355 333.59 185.948C329.4 188.343 323.415 187.943 319.424 184.951C318.626 184.352 317.429 184.352 316.631 185.15C315.833 185.948 316.032 187.145 317.03 187.744C318.427 188.742 319.823 189.54 321.419 190.138C326.008 191.734 331.395 191.535 335.585 189.141C335.784 188.941 335.984 188.941 336.184 188.742C339.575 192.133 341.371 197.121 340.573 201.311C339.775 205.9 335.984 209.89 331.595 210.888C327.006 211.885 321.818 209.89 319.624 205.9C319.025 204.902 317.828 204.703 317.03 205.102C316.032 205.7 315.833 206.698 316.432 207.695C318.028 210.489 321.02 212.683 324.213 213.88C325.609 214.479 327.205 214.679 328.801 214.878C329.799 219.866 328.801 225.053 326.008 229.243C323.215 233.433 318.826 236.426 313.638 237.623C309.448 238.421 304.66 238.221 299.872 236.625C296.081 235.428 290.495 232.834 286.704 228.046C283.511 223.856 282.314 218.669 283.312 214.28C286.504 214.679 289.696 214.479 292.49 213.282C299.273 210.688 303.463 203.905 301.867 197.52C301.667 196.523 300.47 195.924 299.473 196.124C298.475 196.323 297.877 197.321 298.076 198.318C299.273 202.907 296.081 208.095 291.093 209.89C286.504 211.486 280.718 210.688 275.531 207.695C270.743 204.902 267.151 200.513 265.755 195.924C264.158 190.936 264.957 185.549 267.75 181.559C268.348 180.761 268.149 179.564 267.351 178.965C266.553 178.367 265.356 178.566 264.558 179.364C263.759 180.362 263.161 181.559 262.562 182.956L262.363 183.155C259.57 188.941 252.786 192.732 245.803 192.532C239.02 192.333 232.236 188.542 228.246 182.756C224.455 177.17 223.058 169.788 224.455 163.004C224.455 162.805 224.455 162.406 224.455 162.206C224.455 162.007 224.455 162.006 224.654 161.807C224.854 160.809 224.255 159.812 223.258 159.413C222.26 159.213 221.063 159.812 220.864 160.809C219.866 164.401 217.073 167.792 213.282 169.588C209.89 171.384 205.501 171.982 200.912 171.583C193.73 170.785 187.146 167.194 183.155 162.006C178.965 156.42 177.768 149.238 180.362 143.452V143.252C181.559 144.05 182.956 144.649 184.352 145.247C188.542 146.644 193.331 147.043 198.318 146.045C199.316 145.846 200.114 144.848 199.715 143.851C199.516 142.853 198.518 142.254 197.321 142.454C192.932 143.252 188.941 143.053 185.549 141.855C181.759 140.459 178.766 137.666 177.369 134.473C175.973 131.082 176.97 127.091 179.364 124.897C180.163 124.298 180.163 123.101 179.564 122.303C178.766 121.505 177.569 121.505 176.771 122.103C172.98 125.296 171.783 130.882 173.579 135.67C174.177 137.466 175.374 139.062 176.771 140.459C176.372 140.459 175.973 140.658 175.574 140.858C172.182 143.651 166.795 142.853 163.204 141.456C155.622 138.264 149.836 130.882 148.839 122.901C148.041 115.12 151.632 107.14 158.016 102.75C160.011 104.347 162.406 105.544 164.8 106.342C168.79 107.738 173.179 108.337 177.369 107.738C178.367 107.539 179.165 106.541 178.965 105.544C178.766 104.546 177.768 103.748 176.771 103.948C169.588 105.145 161.608 101.952 156.819 96.3659C152.031 90.7795 150.435 82.7989 152.829 75.8159C155.024 69.0323 161.009 63.4459 168.192 61.6503C175.374 59.6551 183.754 61.2512 189.739 65.8401C190.537 66.4386 191.734 66.4386 192.532 65.6406C192.732 65.4411 192.931 65.042 192.931 64.643C193.53 64.244 193.73 63.4459 193.53 62.6478C191.535 56.2634 193.131 48.8813 197.52 43.4944C201.71 38.307 208.494 34.9152 215.876 34.1172C222.659 33.5186 230.241 34.9152 237.024 38.5065C241.613 40.9007 245.005 43.6939 247.399 46.8861C249.793 50.0784 250.99 53.6697 250.791 57.0614C249.594 57.0614 248.397 57.2609 247 57.4604C241.414 58.8571 236.625 62.8474 234.63 68.2343C234.231 69.2319 234.83 70.2294 235.827 70.6285C236.825 71.0275 238.022 70.4289 238.221 69.6309C239.818 65.6406 243.409 62.2488 247.798 61.2512C252.188 60.2537 257.175 61.4508 260.567 64.4435C263.959 67.4362 265.954 72.0251 265.555 76.4144C265.356 77.412 266.154 78.4096 267.351 78.6091C268.348 78.8086 269.346 78.0105 269.545 77.013C270.144 71.4265 267.75 65.6406 263.36 61.8498C262.562 61.2512 261.764 60.4532 260.767 60.0541C265.356 55.0663 272.339 51.6745 279.92 50.4774C287.302 49.2803 295.682 50.2779 303.862 53.0711C311.444 55.6648 317.828 59.4556 322.816 64.244C328.402 69.6309 331.994 76.0154 332.991 82.7989C333.989 89.5824 332.193 96.5655 328.203 101.553C328.203 101.553 328.203 101.553 328.003 101.553C322.217 95.7674 313.04 93.9718 305.658 97.164C304.66 97.563 304.261 98.7601 304.66 99.5582C305.059 100.556 306.256 100.955 307.254 100.556C313.239 97.9621 321.22 99.5582 325.609 104.546C330.198 109.334 330.996 117.116 327.804 122.702C327.205 123.5 327.604 124.697 328.602 125.296C328.801 125.296 328.801 125.495 329.001 125.495C329.799 125.894 330.797 125.495 331.395 124.697C334.986 118.712 334.587 110.931 330.996 105.145C338.578 103.948 346.359 105.344 352.743 108.935C359.926 113.125 365.113 120.507 366.111 128.089C367.308 136.069 363.916 144.05 357.731 148.639C351.746 144.848 344.763 142.853 337.78 143.252C336.782 143.252 335.984 144.25 335.984 145.247C335.984 146.245 336.982 147.043 337.979 147.043C348.154 146.444 358.529 151.831 364.116 160.011C369.503 167.593 370.301 178.965 365.512 187.544Z" fill="white"/>
<path d="M240.416 99.1591C242.212 103.548 241.214 108.935 238.022 112.327C237.224 113.125 237.423 114.322 238.221 114.921C238.421 115.12 238.62 115.32 238.82 115.32C239.618 115.519 240.416 115.519 240.815 114.921C245.204 110.531 246.402 103.548 244.007 97.7625C241.613 91.9765 235.628 87.7867 229.243 87.3877C222.859 86.9887 216.474 90.1809 213.482 95.5678C212.883 96.5654 213.282 97.563 214.28 98.1615C215.277 98.7601 216.474 98.361 216.873 97.3634C219.068 93.1736 224.056 90.5799 229.044 90.979C233.832 91.378 238.62 94.7698 240.416 99.1591Z" fill="white"/>
<path d="M303.263 143.053C302.266 142.853 301.268 143.452 300.869 144.449C300.67 145.447 301.268 146.444 302.266 146.644C308.65 148.24 314.237 153.228 316.032 159.213C317.828 165.398 316.032 172.381 311.244 176.372C306.456 180.561 298.874 181.559 293.088 178.566C292.091 178.167 290.893 178.367 290.494 179.364C290.095 180.362 290.494 181.36 291.492 181.958C292.091 182.357 292.689 182.557 293.487 182.756C300.271 185.15 308.451 183.953 314.037 179.165C319.823 174.177 322.217 165.598 320.023 158.016C317.629 151.033 311.045 145.048 303.263 143.053Z" fill="white"/>
<path d="M290.295 162.605C285.706 164.6 280.12 164.401 275.73 162.006C271.141 159.612 267.949 155.223 267.151 150.235C266.353 146.045 267.55 141.656 270.343 138.264C272.339 140.06 274.533 141.456 277.127 142.454C278.524 143.052 280.12 143.252 281.716 143.452C287.302 144.05 294.086 141.656 295.881 135.87C296.28 134.872 295.682 133.875 294.684 133.476C293.687 133.077 292.49 133.675 292.29 134.673C291.093 138.464 286.105 140.259 282.115 139.86C277.326 139.262 272.738 136.468 270.343 132.279C267.949 128.089 267.75 122.702 269.944 118.712C270.343 117.714 269.944 116.716 268.947 116.118C267.949 115.719 266.752 115.918 266.353 116.916C263.759 122.303 263.959 128.887 266.952 134.074C267.351 134.673 267.55 135.072 267.949 135.67C264.957 139.062 263.36 143.651 263.36 148.24C258.572 152.23 250.791 152.829 245.404 149.237C239.818 145.646 237.224 138.065 239.618 132.079C240.017 131.082 239.419 130.084 238.421 129.685C237.423 129.286 236.226 129.685 235.827 130.683C234.83 133.077 234.63 135.67 234.83 138.264C232.635 140.858 229.443 142.653 225.851 143.252C222.46 143.851 218.669 143.252 215.676 141.456C214.479 140.858 212.484 139.461 211.885 137.666C211.686 136.668 210.489 136.069 209.491 136.269C208.494 136.468 207.895 137.466 208.095 138.464C208.893 141.656 211.686 143.452 213.681 144.649C214.479 145.048 215.477 145.447 216.275 145.846C219.467 147.043 223.058 147.442 226.45 146.843C229.842 146.245 233.034 144.848 235.628 142.653C237.024 146.444 239.419 150.036 243.01 152.23C244.207 153.028 245.404 153.627 246.801 154.026C252.387 156.021 258.772 155.422 263.759 152.43C265.156 157.817 268.947 162.805 274.134 165.598C274.932 165.997 275.73 166.396 276.728 166.795C281.716 168.59 287.502 168.391 292.29 166.396C293.288 165.997 293.687 164.8 293.088 163.802C292.49 162.605 291.293 162.006 290.295 162.605Z" fill="white"/>
<path d="M263.759 97.164C264.358 97.962 265.555 98.1615 266.553 97.563C272.538 93.3732 281.915 93.7722 287.502 98.7601C293.088 103.748 294.485 112.726 290.694 118.911C290.095 119.709 290.494 120.906 291.293 121.505C291.492 121.505 291.492 121.704 291.692 121.704C292.49 122.103 293.487 121.704 294.086 120.906C298.874 113.125 297.078 102.152 290.095 95.9669C283.112 89.7819 271.74 88.9838 264.158 94.3707C263.36 95.1688 263.161 96.3659 263.759 97.164Z" fill="white"/>
<path d="M46.6863 115.918L43.6936 114.921C44.0926 113.724 44.4917 112.527 44.8907 111.33L47.8834 112.327C47.4844 113.724 47.0854 114.921 46.6863 115.918ZM49.0805 108.935L46.0878 107.938C46.4868 106.741 46.8858 105.544 47.4844 104.347L50.4771 105.544C50.0781 106.741 49.4795 107.938 49.0805 108.935ZM51.8737 102.152L49.0805 100.955C49.4795 99.7577 50.0781 98.5607 50.6766 97.5631L53.4699 98.7602C52.8713 99.7577 52.2728 100.955 51.8737 102.152ZM54.8665 95.3684L52.0732 93.9718C52.6718 92.7747 53.2703 91.7771 53.6694 90.58L56.4626 91.9766C56.0636 93.1737 55.465 94.1713 54.8665 95.3684ZM58.2582 88.7844L55.465 87.3878C56.0636 86.1907 56.6621 85.1931 57.2606 83.996L60.0539 85.5922C59.4553 86.5897 58.8568 87.5873 58.2582 88.7844ZM62.049 82.2004L59.4553 80.6043C60.0539 79.6067 60.8519 78.4096 61.4505 77.412L64.0442 79.0081C63.2461 80.2052 62.6476 81.2028 62.049 82.2004ZM66.0393 76.0154L63.4456 74.2198C64.0442 73.2222 64.8422 72.0251 65.6403 71.0275L68.234 72.8232C67.2364 73.8208 66.6379 75.0178 66.0393 76.0154ZM70.2291 69.8304L67.6354 68.0348C68.4335 67.0372 69.2316 66.0396 69.8301 65.0421L72.2243 67.0372C71.6258 67.8353 70.8277 68.8329 70.2291 69.8304ZM74.6185 64.0445L72.2243 62.0493C73.0224 61.0518 73.8204 60.0542 74.6185 59.0566L77.0127 61.0518C76.2146 62.0493 75.4165 63.0469 74.6185 64.0445ZM79.4068 58.2586L77.0127 56.2634C77.8107 55.2658 78.6088 54.4678 79.6064 53.4702L82.0005 55.6649C81.2025 56.4629 80.4044 57.4605 79.4068 58.2586ZM84.5943 52.8716L82.3996 50.677C83.1976 49.6794 84.1952 48.8813 84.9933 48.0833L87.188 50.2779C86.1904 51.076 85.3923 51.8741 84.5943 52.8716ZM89.7816 47.6842L87.587 45.4896C88.5846 44.6915 89.3826 43.6939 90.3802 42.8959L92.3753 45.2901C91.5773 45.8886 90.7792 46.6867 89.7816 47.6842ZM95.3681 42.6964L93.3729 40.3022C94.3705 39.5041 95.3681 38.7061 96.3657 37.908L98.3608 40.3022C97.1637 41.1002 96.3657 41.8983 95.3681 42.6964ZM101.154 37.908L99.1589 35.5138C100.156 34.7157 101.154 33.9177 102.152 33.1196L103.947 35.7133C103.149 36.3119 102.152 37.1099 101.154 37.908ZM106.94 33.5187L105.144 30.925C106.142 30.1269 107.139 29.5283 108.337 28.7303L110.132 31.324C109.135 32.122 108.137 32.7206 106.94 33.5187Z" fill="white"/>
<path d="M276.329 401.425C276.129 400.228 275.93 398.831 275.73 397.634L278.922 397.235C279.122 398.432 279.321 399.629 279.521 400.826L276.329 401.425ZM275.331 393.843C275.331 392.646 275.132 391.25 275.132 390.052H278.324C278.324 391.25 278.324 392.447 278.523 393.644L275.331 393.843ZM278.324 386.262H275.132C275.132 385.065 275.331 383.668 275.331 382.471L278.523 382.67C278.523 383.868 278.324 385.065 278.324 386.262ZM278.922 378.88L275.73 378.481C275.93 377.283 276.129 375.887 276.329 374.69L279.321 375.288C279.321 376.485 279.122 377.683 278.922 378.88ZM280.119 371.697L277.127 371.099C277.326 369.901 277.725 368.704 277.925 367.308L280.918 368.106C280.718 369.303 280.519 370.5 280.119 371.697ZM282.115 364.515L279.122 363.517C279.521 362.32 279.92 361.123 280.319 359.926L283.312 360.923C282.713 362.32 282.514 363.517 282.115 364.515ZM284.509 357.531L281.516 356.334C281.915 355.137 282.514 353.94 282.913 352.743L285.706 353.94C285.506 355.337 284.908 356.534 284.509 357.531ZM287.502 350.947L284.708 349.551C285.307 348.354 285.905 347.356 286.504 346.159L289.297 347.556C288.499 348.753 287.901 349.75 287.502 350.947ZM290.893 344.363L288.1 342.767C288.699 341.77 289.297 340.573 290.095 339.575L292.689 341.171C292.09 342.169 291.492 343.166 290.893 344.363ZM294.684 337.979L292.09 336.183C292.689 335.186 293.487 333.989 294.285 332.991L296.879 334.787C296.081 335.984 295.482 336.981 294.684 337.979ZM298.874 331.794L296.28 329.998C297.078 329.001 297.677 328.003 298.475 327.006L300.869 329.001C300.47 329.799 299.672 330.796 298.874 331.794ZM303.463 326.008L301.069 324.013C301.867 323.015 302.665 322.018 303.463 321.02L305.857 323.015C305.059 324.013 304.261 325.01 303.463 326.008ZM308.251 320.222L305.857 318.227C306.655 317.229 307.453 316.431 308.451 315.434L310.845 317.628C309.847 318.426 309.049 319.424 308.251 320.222ZM313.239 314.835L311.044 312.641C311.842 311.643 312.84 310.845 313.638 309.847L315.833 312.042C314.835 313.04 314.037 313.838 313.239 314.835ZM318.426 309.448L316.232 307.254C317.03 306.456 318.027 305.458 318.825 304.66L321.02 306.855C320.222 307.653 319.225 308.451 318.426 309.448ZM323.813 304.061L321.619 301.867L322.217 301.268C322.816 300.67 323.614 299.872 324.212 299.273L326.407 301.468C325.809 302.066 325.01 302.665 324.412 303.463L323.813 304.061ZM329.2 299.073L327.006 296.879C328.003 296.081 328.801 295.083 329.799 294.285L331.993 296.679C330.996 297.278 329.998 298.275 329.2 299.073ZM334.587 293.886L332.393 291.492C333.39 290.694 334.188 289.896 335.186 288.898L337.181 291.292C336.582 292.29 335.585 293.088 334.587 293.886ZM340.174 288.898L338.178 286.504L340.972 283.91L342.967 286.305L340.174 288.898ZM345.76 283.91L343.765 281.516C344.762 280.718 345.561 279.92 346.558 278.922L348.753 281.317C347.755 282.314 346.758 283.112 345.76 283.91ZM351.346 278.922L349.152 276.528C350.149 275.73 350.947 274.932 351.945 273.935L354.14 276.329C353.142 277.127 352.344 278.124 351.346 278.922ZM356.933 273.735L354.738 271.54C355.736 270.742 356.534 269.745 357.531 268.947L359.726 271.141C358.729 272.139 357.731 272.937 356.933 273.735ZM362.32 268.548L360.125 266.353C360.923 265.555 361.921 264.557 362.719 263.759L364.913 265.954C364.115 266.752 363.317 267.75 362.32 268.548Z" fill="white"/>
<path d="M117.115 418.184C116.916 416.987 116.517 415.79 116.317 414.593L119.31 413.795C119.709 414.992 119.909 416.189 120.308 417.386L117.115 418.184ZM115.32 411.002C114.921 409.805 114.721 408.607 114.322 407.41L117.315 406.612C117.714 407.809 117.914 409.006 118.313 410.204L115.32 411.002ZM113.125 403.819C112.726 402.622 112.327 401.425 111.928 400.427L114.921 399.43C115.32 400.627 115.719 401.824 116.118 403.021L113.125 403.819ZM110.531 397.036C110.132 395.838 109.534 394.841 108.935 393.644L111.729 392.247C112.327 393.444 112.726 394.641 113.325 395.639L110.531 397.036ZM107.339 390.452C106.741 389.454 106.142 388.257 105.544 387.259L108.137 385.663C108.736 386.661 109.534 387.858 110.132 389.055L107.339 390.452ZM103.349 384.267C102.551 383.269 101.753 382.271 101.154 381.473L103.548 379.478C104.346 380.476 105.145 381.473 105.943 382.471L103.349 384.267ZM98.5605 378.88C97.7625 378.082 96.7649 377.283 95.7673 376.485L97.7625 374.091C98.76 374.889 99.7576 375.687 100.755 376.685L98.5605 378.88ZM92.9741 374.291C91.9765 373.692 90.9789 372.894 89.9814 372.296L91.5775 369.702C92.7746 370.3 93.7722 371.099 94.7697 371.897L92.9741 374.291ZM86.7891 370.5C85.7915 369.901 84.5944 369.502 83.3974 368.904L84.794 366.111C85.9911 366.709 87.1881 367.308 88.1857 367.707L86.7891 370.5ZM80.2051 367.308C79.2075 366.909 78.0104 366.31 76.8133 365.911L77.8109 363.118C79.008 363.517 80.2051 364.115 81.4022 364.515L80.2051 367.308ZM73.2221 364.714C72.025 364.315 70.8279 363.916 69.6308 363.517L70.6284 360.524C71.8255 360.923 73.0226 361.322 74.2196 361.721L73.2221 364.714ZM66.0395 362.519C64.8424 362.12 63.6453 361.721 62.4482 361.522L63.4458 358.529C64.6429 358.928 65.84 359.327 67.0371 359.527L66.0395 362.519Z" fill="white"/>
</g>
<defs>
<linearGradient id="paint0_linear" x1="330.742" y1="406.598" x2="427.653" y2="10.1921" gradientUnits="userSpaceOnUse">
<stop offset="0.167182" stop-color="#18AADE"/>
<stop offset="0.736836" stop-color="#18DEA6"/>
</linearGradient>
<clipPath id="clip0">
<rect width="412.997" height="494" fill="white"/>
</clipPath>
</defs>
</svg>
