<svg width="430" height="57" viewBox="0 0 430 57" fill="none" xmlns="http://www.w3.org/2000/svg">
<rect width="430" height="57" rx="5" fill="url(#paint0_linear)"/>
<path d="M179.856 33.384V36H167.256V19.2H179.52V21.816H170.376V26.184H178.488V28.752H170.376V33.384H179.856ZM198.982 19.2V36H196.414L187.15 24.624V36H184.054V19.2H186.622L195.886 30.576V19.2H198.982ZM219.447 19.2L212.127 36H209.055L201.711 19.2H205.095L210.687 32.16L216.327 19.2H219.447ZM221.939 19.2H225.059V36H221.939V19.2ZM241.22 32.112H232.82L231.164 36H227.948L235.508 19.2H238.58L246.164 36H242.9L241.22 32.112ZM240.188 29.664L237.02 22.32L233.876 29.664H240.188ZM260.012 36L256.58 31.08C256.436 31.096 256.22 31.104 255.932 31.104H252.14V36H249.02V19.2H255.932C257.388 19.2 258.652 19.44 259.724 19.92C260.812 20.4 261.644 21.088 262.22 21.984C262.796 22.88 263.084 23.944 263.084 25.176C263.084 26.44 262.772 27.528 262.148 28.44C261.54 29.352 260.66 30.032 259.508 30.48L263.372 36H260.012ZM259.94 25.176C259.94 24.104 259.588 23.28 258.884 22.704C258.18 22.128 257.148 21.84 255.788 21.84H252.14V28.536H255.788C257.148 28.536 258.18 28.248 258.884 27.672C259.588 27.08 259.94 26.248 259.94 25.176Z" fill="#F0F0F0"/>
<defs>
<linearGradient id="paint0_linear" x1="490.432" y1="99.9351" x2="483.891" y2="-44.5793" gradientUnits="userSpaceOnUse">
<stop offset="0.167182" stop-color="#1896A6"/>
<stop offset="0.736836" stop-color="#18DEA6"/>
</linearGradient>
</defs>
</svg>
