<svg width="23" height="23" viewBox="0 0 23 23" fill="none" xmlns="http://www.w3.org/2000/svg">
<path d="M22.08 0H0.92C0.411125 0 0 0.411125 0 0.92V22.08C0 22.5889 0.411125 23 0.92 23H22.08C22.5889 23 23 22.5889 23 22.08V0.92C23 0.411125 22.5889 0 22.08 0ZM19.4235 6.71313H17.5864C16.146 6.71313 15.8671 7.39737 15.8671 8.40362V10.6202H19.3056L18.8571 14.0904H15.8671V23H12.282V14.0933H9.28337V10.6202H12.282V8.0615C12.282 5.09162 14.0961 3.473 16.7469 3.473C18.0176 3.473 19.1073 3.56788 19.4264 3.611V6.71313H19.4235Z" fill="#F0F0F0"/>
</svg>
