<svg width="89" height="93" viewBox="0 0 89 93" fill="none" xmlns="http://www.w3.org/2000/svg">
<path d="M24.3636 56.1516C25.7978 56.6574 27.077 57.1242 28.705 57.6689C27.9297 60.5479 27.232 63.5048 26.3405 66.4616C24.5187 72.4142 22.5418 78.289 20.7588 84.2416C20.5262 85.0586 20.9138 86.1091 21.0301 87.0428C21.8829 86.8094 22.9294 86.8094 23.5884 86.3425C28.1235 83.0355 32.5812 79.6118 37.1163 76.2659C42.6206 72.1808 48.3961 72.2197 53.9003 76.3048C58.3579 79.6118 62.7768 83.0355 67.2345 86.3036C67.9322 86.8094 68.94 86.8483 69.7927 87.1206C69.909 86.1869 70.3742 85.1364 70.1416 84.3194C68.4748 78.6781 66.6918 73.0756 64.9087 67.4732C63.8234 64.0106 62.4667 62.999 58.8618 62.999C53.0475 62.999 47.2332 63.3103 41.6127 61.4039C37.3489 59.9644 33.4727 57.7856 29.9841 55.0233C26.4955 52.261 22.5806 50.8993 18.1617 50.9771C16.6887 51.016 15.177 51.016 13.7041 50.9382C12.8901 50.8993 11.8823 50.9771 11.2621 50.5491C7.88976 48.2148 4.05232 46.2306 1.49403 43.1959C-2.1496 38.9163 1.33898 32.0689 6.92071 31.9911C13.549 31.8743 20.2161 31.2518 26.7669 33.1582C30.9144 34.3643 34.7131 36.1929 38.1242 38.8385C43.7059 43.157 50.0241 45.1801 57.04 45.1801C62.583 45.1801 68.1647 45.1412 73.7077 45.219C75.607 45.2579 77.2351 44.83 78.6693 43.5461C79.6771 42.6513 80.9175 41.9899 81.8865 41.0561C82.4679 40.4725 82.7393 39.5388 83.1657 38.7218C82.3904 38.4105 81.6539 37.788 80.8787 37.788C71.7696 37.7102 62.6605 37.7491 53.5514 37.7491C44.985 37.7491 37.7753 32.4579 35.1782 24.3266C34.4418 22.0312 33.7053 19.7746 33.0463 17.4792C30.4493 8.18068 37.0388 -0.339723 46.4968 0.0104294C51.4195 0.204958 56.3036 4.01775 57.7765 8.95879C58.668 11.9156 58.9006 14.9113 57.854 17.946C56.6524 21.5642 55.5283 25.2214 54.2492 28.8008C54.0941 29.2676 53.0863 29.8123 52.5824 29.6956C49.0163 28.9175 48.8612 28.723 49.7915 25.1825C50.6443 21.9144 51.6909 18.7241 52.6212 15.4949C53.5902 12.0712 52.5436 8.56973 49.8303 6.89678C47.0394 5.14602 44.5199 4.75696 41.3026 6.81897C38.5118 8.60864 37.4264 11.9156 38.3567 15.3783C38.9769 17.6348 39.6746 19.8524 40.3724 22.0701C42.388 28.295 47.2332 31.8743 53.7065 31.8743C63.0094 31.9132 72.3123 31.9132 81.6152 31.9132C84.4448 31.9132 86.6155 33.0804 87.9334 35.6093C89.2901 38.216 89.5614 41.1728 87.507 43.2738C83.7083 47.1254 79.8709 51.2105 73.6302 50.9382C67.8934 50.7048 62.1179 50.8993 56.3811 50.8993C48.7837 50.8604 41.8453 48.7595 35.7984 44.1686C29.8291 39.6555 23.2395 37.399 15.7585 37.6713C13.1614 37.788 10.6031 37.6324 8.00605 37.7491C7.30833 37.788 6.18423 38.216 6.02918 38.7218C5.83537 39.2664 6.37804 40.3169 6.92071 40.7838C8.3549 42.0677 9.90539 43.3127 11.5722 44.2464C12.6187 44.83 14.0142 45.0634 15.2545 45.0245C20.4099 44.9856 25.4877 45.3358 30.0229 48.0592C31.6121 49.0318 33.1239 50.1601 34.6356 51.2494C39.8684 55.1789 45.7603 57.1242 52.3111 57.202C55.0244 57.241 57.7377 57.1631 60.4511 57.241C64.6762 57.3966 67.9322 59.4586 69.3664 63.3103C71.8471 70.1188 73.9015 77.044 75.9171 84.0082C76.8474 87.1206 75.4132 90.1942 72.7387 91.945C70.4129 93.4623 67.312 93.3067 64.7924 91.4392C60.2185 88.0544 55.6834 84.6307 51.1482 81.2069C47.1169 78.1723 44.0935 78.0945 40.0623 81.0902C35.5659 84.4361 31.0695 87.8598 26.5731 91.2057C23.6659 93.3845 20.5262 93.579 17.9679 91.7893C15.3708 89.9608 14.1692 86.7705 15.2158 83.5413C17.9679 74.7875 20.7975 66.0337 23.6271 57.3188C23.7434 56.9297 24.0535 56.5796 24.3636 56.1516Z" fill="url(#paint0_linear)"/>
<defs>
<linearGradient id="paint0_linear" x1="102.5" y1="93" x2="9.64149" y2="15.7162" gradientUnits="userSpaceOnUse">
<stop stop-color="#1896A6"/>
<stop offset="0.635417" stop-color="#18DEA6"/>
</linearGradient>
</defs>
</svg>
